<svg width="1728" height="513" viewBox="0 0 1728 513" fill="none" xmlns="http://www.w3.org/2000/svg">
<path fill-rule="evenodd" clip-rule="evenodd" d="M1728 0L1692 24.8801C1656 49.7602 1584 100.099 1512 109.935C1440 119.772 1368 89.684 1296 64.804C1224 39.9239 1152 20.2512 1080 30.0875C1008 39.9239 936 79.8477 864 115.143C792 149.859 720 179.947 648 170.11C576 159.695 504 109.935 432 94.8915C360 79.8477 288 100.099 216 89.684C144 79.8477 72 39.9239 36 20.2512L0 0V0H36C72 0 144 0 216 0C288 0 360 0 432 0C504 0 576 0 648 0C720 0 792 0 864 0C936 0 1008 0 1080 0C1152 0 1224 0 1296 0C1368 0 1440 0 1512 0C1584 0 1656 0 1692 0H1728Z" fill="#4BA9FF"/>
<path fill-rule="evenodd" clip-rule="evenodd" d="M1728 141.628L1704 129.372C1680 117.116 1632 93.965 1584 117.116C1536 141.628 1488 211.081 1440 281.895C1392 352.709 1344 423.523 1296 469.825C1248 517.488 1200 540.639 1152 458.93C1104 375.86 1056 187.93 1008 141.628C960 93.965 912 187.93 864 223.337C816 258.744 768 235.593 720 223.337C672 211.081 624 211.081 576 246.488C528 281.895 480 352.709 432 317.302C384 281.895 336 141.628 288 129.372C240 117.116 192 235.593 144 294.151C96 352.709 48 352.709 24 352.709H0V0H24C48 0 96 0 144 0C192 0 240 0 288 0C336 0 384 0 432 0C480 0 528 0 576 0C624 0 672 0 720 0C768 0 816 0 864 0C912 0 960 0 1008 0C1056 0 1104 0 1152 0C1200 0 1248 0 1296 0C1344 0 1392 0 1440 0C1488 0 1536 0 1584 0C1632 0 1680 0 1704 0H1728V141.628Z" fill="#4BA9FF" fill-opacity="0.38"/>
</svg>
