<svg width="1728" height="605" viewBox="0 0 1728 605" fill="none" xmlns="http://www.w3.org/2000/svg">
<path d="M627.411 623.341C723.191 743.24 613.741 814.338 496.89 807.923C435.53 804.554 381.621 771.603 357.037 739.566C326.308 699.52 292.52 628.609 268.343 596.645C244.165 564.681 179.344 531.917 121.438 550.306C63.5324 568.695 137.434 579.808 185.159 619.223C232.884 658.639 110.455 663.786 46.897 657.497C-31.7946 649.709 -193.499 599.345 -196.287 512.338C-199.076 425.331 -3.49999 361.867 187.168 393.591C283.953 409.694 507.685 473.466 627.411 623.341Z" fill="#6EE8CC" fill-opacity="0.49"/>
<path d="M1128.03 177.445C1040.43 51.4454 1154.36 -12.2209 1270.53 1.94574C1331.53 9.38476 1383.13 45.8457 1405.53 79.4457C1433.53 121.446 1462.53 194.445 1484.53 227.945C1506.53 261.445 1569.03 298.445 1628.03 283.945C1687.03 269.445 1614.03 253.445 1569.03 210.945C1524.03 168.445 1646.53 171.446 1709.53 181.946C1787.53 194.946 1945.53 255.945 1942.53 342.945C1939.53 429.945 1647.53 458.445 1552.03 435.945C1456.53 413.445 1237.53 334.945 1128.03 177.445Z" fill="#6EE8CC" fill-opacity="0.69"/>
</svg>
