<svg width="1330" height="478" viewBox="0 0 1330 478" fill="none" xmlns="http://www.w3.org/2000/svg">
<mask id="path-1-inside-1_33_9" fill="white">
<path d="M91.8261 30.6087H161.391V100.174H91.8261V30.6087Z"/>
<path d="M76.5217 45.913H146.087V115.478H76.5217V45.913Z"/>
<path d="M61.2174 61.2174H130.783V130.783H61.2174V61.2174Z"/>
<path d="M45.913 76.5217H115.478V146.087H45.913V76.5217Z"/>
<path d="M30.6087 91.8261H100.174V161.391H30.6087V91.8261Z"/>
<path d="M0 122.435H69.5652V192H0V122.435Z"/>
<path d="M15.3043 107.13H84.8696V176.696H15.3043V107.13Z"/>
<path d="M107.13 15.3043H176.696V84.8696H107.13V15.3043Z"/>
<path d="M122.435 0H192V69.5652H122.435V0Z"/>
</mask>
<path d="M91.8261 30.6087H161.391V100.174H91.8261V30.6087Z" fill="#FF7C6A" fill-opacity="0.7"/>
<path d="M76.5217 45.913H146.087V115.478H76.5217V45.913Z" fill="#FF7C6A" fill-opacity="0.6"/>
<path d="M61.2174 61.2174H130.783V130.783H61.2174V61.2174Z" fill="#FF7C6A" fill-opacity="0.5"/>
<path d="M45.913 76.5217H115.478V146.087H45.913V76.5217Z" fill="#FF7C6A" fill-opacity="0.4"/>
<path d="M30.6087 91.8261H100.174V161.391H30.6087V91.8261Z" fill="#FF7C6A" fill-opacity="0.3"/>
<path d="M0 122.435H69.5652V192H0V122.435Z" fill="#FF7C6A" fill-opacity="0.1"/>
<path d="M15.3043 107.13H84.8696V176.696H15.3043V107.13Z" fill="#FF7C6A" fill-opacity="0.2"/>
<path d="M107.13 15.3043H176.696V84.8696H107.13V15.3043Z" fill="#FF7C6A" fill-opacity="0.8"/>
<path d="M122.435 0H192V69.5652H122.435V0Z" fill="#FF7C6A" fill-opacity="0.9"/>
<path d="M91.8261 30.6087V30.1087H91.3261V30.6087H91.8261ZM161.391 30.6087H161.891V30.1087H161.391V30.6087ZM161.391 100.174V100.674H161.891V100.174H161.391ZM91.8261 100.174H91.3261V100.674H91.8261V100.174ZM76.5217 45.913V45.413H76.0217V45.913H76.5217ZM146.087 45.913H146.587V45.413H146.087V45.913ZM146.087 115.478V115.978H146.587V115.478H146.087ZM76.5217 115.478H76.0217V115.978H76.5217V115.478ZM61.2174 61.2174V60.7174H60.7174V61.2174H61.2174ZM130.783 61.2174H131.283V60.7174H130.783V61.2174ZM130.783 130.783V131.283H131.283V130.783H130.783ZM61.2174 130.783H60.7174V131.283H61.2174V130.783ZM45.913 76.5217V76.0217H45.413V76.5217H45.913ZM115.478 76.5217H115.978V76.0217H115.478V76.5217ZM115.478 146.087V146.587H115.978V146.087H115.478ZM45.913 146.087H45.413V146.587H45.913V146.087ZM30.6087 91.8261V91.3261H30.1087V91.8261H30.6087ZM100.174 91.8261H100.674V91.3261H100.174V91.8261ZM100.174 161.391V161.891H100.674V161.391H100.174ZM30.6087 161.391H30.1087V161.891H30.6087V161.391ZM0 122.435V121.935H-0.5V122.435H0ZM69.5652 122.435H70.0652V121.935H69.5652V122.435ZM69.5652 192V192.5H70.0652V192H69.5652ZM0 192H-0.5V192.5H0V192ZM15.3043 107.13V106.63H14.8043V107.13H15.3043ZM84.8696 107.13H85.3696V106.63H84.8696V107.13ZM84.8696 176.696V177.196H85.3696V176.696H84.8696ZM15.3043 176.696H14.8043V177.196H15.3043V176.696ZM107.13 15.3043V14.8043H106.63V15.3043H107.13ZM176.696 15.3043H177.196V14.8043H176.696V15.3043ZM176.696 84.8696V85.3696H177.196V84.8696H176.696ZM107.13 84.8696H106.63V85.3696H107.13V84.8696ZM122.435 0V-0.5H121.935V0H122.435ZM192 0H192.5V-0.5H192V0ZM192 69.5652V70.0652H192.5V69.5652H192ZM122.435 69.5652H121.935V70.0652H122.435V69.5652ZM91.8261 31.1087H161.391V30.1087H91.8261V31.1087ZM160.891 30.6087V100.174H161.891V30.6087H160.891ZM161.391 99.6739H91.8261V100.674H161.391V99.6739ZM92.3261 100.174V30.6087H91.3261V100.174H92.3261ZM76.5217 46.413H146.087V45.413H76.5217V46.413ZM145.587 45.913V115.478H146.587V45.913H145.587ZM146.087 114.978H76.5217V115.978H146.087V114.978ZM77.0217 115.478V45.913H76.0217V115.478H77.0217ZM61.2174 61.7174H130.783V60.7174H61.2174V61.7174ZM130.283 61.2174V130.783H131.283V61.2174H130.283ZM130.783 130.283H61.2174V131.283H130.783V130.283ZM61.7174 130.783V61.2174H60.7174V130.783H61.7174ZM45.913 77.0217H115.478V76.0217H45.913V77.0217ZM114.978 76.5217V146.087H115.978V76.5217H114.978ZM115.478 145.587H45.913V146.587H115.478V145.587ZM46.413 146.087V76.5217H45.413V146.087H46.413ZM30.6087 92.3261H100.174V91.3261H30.6087V92.3261ZM99.6739 91.8261V161.391H100.674V91.8261H99.6739ZM100.174 160.891H30.6087V161.891H100.174V160.891ZM31.1087 161.391V91.8261H30.1087V161.391H31.1087ZM0 122.935H69.5652V121.935H0V122.935ZM69.0652 122.435V192H70.0652V122.435H69.0652ZM69.5652 191.5H0V192.5H69.5652V191.5ZM0.5 192V122.435H-0.5V192H0.5ZM15.3043 107.63H84.8696V106.63H15.3043V107.63ZM84.3696 107.13V176.696H85.3696V107.13H84.3696ZM84.8696 176.196H15.3043V177.196H84.8696V176.196ZM15.8043 176.696V107.13H14.8043V176.696H15.8043ZM107.13 15.8043H176.696V14.8043H107.13V15.8043ZM176.196 15.3043V84.8696H177.196V15.3043H176.196ZM176.696 84.3696H107.13V85.3696H176.696V84.3696ZM107.63 84.8696V15.3043H106.63V84.8696H107.63ZM122.435 0.5H192V-0.5H122.435V0.5ZM191.5 0V69.5652H192.5V0H191.5ZM192 69.0652H122.435V70.0652H192V69.0652ZM122.935 69.5652V0H121.935V69.5652H122.935Z" fill="#4BA9FF" mask="url(#path-1-inside-1_33_9)"/>
<mask id="path-3-inside-2_33_9" fill="white">
<path d="M1148.24 185.413H1274.18V311.351H1148.24V185.413Z"/>
<path d="M1120.53 213.119H1246.47V339.058H1120.53V213.119Z"/>
<path d="M1092.83 240.826H1218.76V366.764H1092.83V240.826Z"/>
<path d="M1065.12 268.532H1191.06V394.47H1065.12V268.532Z"/>
<path d="M1037.41 296.239H1163.35V422.177H1037.41V296.239Z"/>
<path d="M982 351.651H1107.94V477.59H982V351.651Z"/>
<path d="M1009.71 323.945H1135.64V449.883H1009.71V323.945Z"/>
<path d="M1175.94 157.706H1301.88V283.645H1175.94V157.706Z"/>
<path d="M1203.65 130H1329.59V255.938H1203.65V130Z"/>
</mask>
<path d="M1148.24 185.413H1274.18V311.351H1148.24V185.413Z" fill="#FF7C6A" fill-opacity="0.7"/>
<path d="M1120.53 213.119H1246.47V339.058H1120.53V213.119Z" fill="#FF7C6A" fill-opacity="0.6"/>
<path d="M1092.83 240.826H1218.76V366.764H1092.83V240.826Z" fill="#FF7C6A" fill-opacity="0.5"/>
<path d="M1065.12 268.532H1191.06V394.47H1065.12V268.532Z" fill="#FF7C6A" fill-opacity="0.4"/>
<path d="M1037.41 296.239H1163.35V422.177H1037.41V296.239Z" fill="#FF7C6A" fill-opacity="0.3"/>
<path d="M982 351.651H1107.94V477.59H982V351.651Z" fill="#FF7C6A" fill-opacity="0.1"/>
<path d="M1009.71 323.945H1135.64V449.883H1009.71V323.945Z" fill="#FF7C6A" fill-opacity="0.2"/>
<path d="M1175.94 157.706H1301.88V283.645H1175.94V157.706Z" fill="#FF7C6A" fill-opacity="0.8"/>
<path d="M1203.65 130H1329.59V255.938H1203.65V130Z" fill="#FF7C6A" fill-opacity="0.9"/>
<path d="M1148.24 185.413V184.413H1147.24V185.413H1148.24ZM1274.18 185.413H1275.18V184.413H1274.18V185.413ZM1274.18 311.351V312.351H1275.18V311.351H1274.18ZM1148.24 311.351H1147.24V312.351H1148.24V311.351ZM1120.53 213.119V212.119H1119.53V213.119H1120.53ZM1246.47 213.119H1247.47V212.119H1246.47V213.119ZM1246.47 339.058V340.058H1247.47V339.058H1246.47ZM1120.53 339.058H1119.53V340.058H1120.53V339.058ZM1092.83 240.826V239.826H1091.83V240.826H1092.83ZM1218.76 240.826H1219.76V239.826H1218.76V240.826ZM1218.76 366.764V367.764H1219.76V366.764H1218.76ZM1092.83 366.764H1091.83V367.764H1092.83V366.764ZM1065.12 268.532V267.532H1064.12V268.532H1065.12ZM1191.06 268.532H1192.06V267.532H1191.06V268.532ZM1191.06 394.47V395.47H1192.06V394.47H1191.06ZM1065.12 394.47H1064.12V395.47H1065.12V394.47ZM1037.41 296.239V295.239H1036.41V296.239H1037.41ZM1163.35 296.239H1164.35V295.239H1163.35V296.239ZM1163.35 422.177V423.177H1164.35V422.177H1163.35ZM1037.41 422.177H1036.41V423.177H1037.41V422.177ZM982 351.651V350.651H981V351.651H982ZM1107.94 351.651H1108.94V350.651H1107.94V351.651ZM1107.94 477.59V478.59H1108.94V477.59H1107.94ZM982 477.59H981V478.59H982V477.59ZM1009.71 323.945V322.945H1008.71V323.945H1009.71ZM1135.64 323.945H1136.64V322.945H1135.64V323.945ZM1135.64 449.883V450.883H1136.64V449.883H1135.64ZM1009.71 449.883H1008.71V450.883H1009.71V449.883ZM1175.94 157.706V156.706H1174.94V157.706H1175.94ZM1301.88 157.706H1302.88V156.706H1301.88V157.706ZM1301.88 283.645V284.645H1302.88V283.645H1301.88ZM1175.94 283.645H1174.94V284.645H1175.94V283.645ZM1203.65 130V129H1202.65V130H1203.65ZM1329.59 130H1330.59V129H1329.59V130ZM1329.59 255.938V256.938H1330.59V255.938H1329.59ZM1203.65 255.938H1202.65V256.938H1203.65V255.938ZM1148.24 186.413H1274.18V184.413H1148.24V186.413ZM1273.18 185.413V311.351H1275.18V185.413H1273.18ZM1274.18 310.351H1148.24V312.351H1274.18V310.351ZM1149.24 311.351V185.413H1147.24V311.351H1149.24ZM1120.53 214.119H1246.47V212.119H1120.53V214.119ZM1245.47 213.119V339.058H1247.47V213.119H1245.47ZM1246.47 338.058H1120.53V340.058H1246.47V338.058ZM1121.53 339.058V213.119H1119.53V339.058H1121.53ZM1092.83 241.826H1218.76V239.826H1092.83V241.826ZM1217.76 240.826V366.764H1219.76V240.826H1217.76ZM1218.76 365.764H1092.83V367.764H1218.76V365.764ZM1093.83 366.764V240.826H1091.83V366.764H1093.83ZM1065.12 269.532H1191.06V267.532H1065.12V269.532ZM1190.06 268.532V394.47H1192.06V268.532H1190.06ZM1191.06 393.47H1065.12V395.47H1191.06V393.47ZM1066.12 394.47V268.532H1064.12V394.47H1066.12ZM1037.41 297.239H1163.35V295.239H1037.41V297.239ZM1162.35 296.239V422.177H1164.35V296.239H1162.35ZM1163.35 421.177H1037.41V423.177H1163.35V421.177ZM1038.41 422.177V296.239H1036.41V422.177H1038.41ZM982 352.651H1107.94V350.651H982V352.651ZM1106.94 351.651V477.59H1108.94V351.651H1106.94ZM1107.94 476.59H982V478.59H1107.94V476.59ZM983 477.59V351.651H981V477.59H983ZM1009.71 324.945H1135.64V322.945H1009.71V324.945ZM1134.64 323.945V449.883H1136.64V323.945H1134.64ZM1135.64 448.883H1009.71V450.883H1135.64V448.883ZM1010.71 449.883V323.945H1008.71V449.883H1010.71ZM1175.94 158.706H1301.88V156.706H1175.94V158.706ZM1300.88 157.706V283.645H1302.88V157.706H1300.88ZM1301.88 282.645H1175.94V284.645H1301.88V282.645ZM1176.94 283.645V157.706H1174.94V283.645H1176.94ZM1203.65 131H1329.59V129H1203.65V131ZM1328.59 130V255.938H1330.59V130H1328.59ZM1329.59 254.938H1203.65V256.938H1329.59V254.938ZM1204.65 255.938V130H1202.65V255.938H1204.65Z" fill="#FFF385" mask="url(#path-3-inside-2_33_9)"/>
</svg>
