<svg width="748" height="707" viewBox="0 0 748 707" fill="none" xmlns="http://www.w3.org/2000/svg">
<mask id="path-1-inside-1_6_518" fill="white">
<path d="M357.852 79.0453H628.409V349.603H357.852V79.0453Z"/>
<path d="M298.329 138.568H568.886V409.125H298.329V138.568Z"/>
<path d="M238.806 198.091H509.364V468.648H238.806V198.091Z"/>
<path d="M179.284 257.613H449.841V528.171H179.284V257.613Z"/>
<path d="M119.761 317.136H390.318V587.693H119.761V317.136Z"/>
<path d="M0.71582 436.181H271.273V706.738H0.71582V436.181Z"/>
<path d="M60.2385 376.658H330.796V647.216H60.2385V376.658Z"/>
<path d="M417.374 19.5226H687.932V290.08H417.374V19.5226Z"/>
<path d="M476.897 -40H747.454V230.557H476.897V-40Z"/>
</mask>
<path d="M357.852 79.0453H628.409V349.603H357.852V79.0453Z" fill="#FF7C6A" fill-opacity="0.7"/>
<path d="M298.329 138.568H568.886V409.125H298.329V138.568Z" fill="#FF7C6A" fill-opacity="0.6"/>
<path d="M238.806 198.091H509.364V468.648H238.806V198.091Z" fill="#FF7C6A" fill-opacity="0.5"/>
<path d="M179.284 257.613H449.841V528.171H179.284V257.613Z" fill="#FF7C6A" fill-opacity="0.4"/>
<path d="M119.761 317.136H390.318V587.693H119.761V317.136Z" fill="#FF7C6A" fill-opacity="0.3"/>
<path d="M0.71582 436.181H271.273V706.738H0.71582V436.181Z" fill="#FF7C6A" fill-opacity="0.1"/>
<path d="M60.2385 376.658H330.796V647.216H60.2385V376.658Z" fill="#FF7C6A" fill-opacity="0.2"/>
<path d="M417.374 19.5226H687.932V290.08H417.374V19.5226Z" fill="#FF7C6A" fill-opacity="0.8"/>
<path d="M476.897 -40H747.454V230.557H476.897V-40Z" fill="#FF7C6A" fill-opacity="0.9"/>
<path d="M357.852 79.0453V77.0453H355.852V79.0453H357.852ZM628.409 79.0453H630.409V77.0453H628.409V79.0453ZM628.409 349.603V351.603H630.409V349.603H628.409ZM357.852 349.603H355.852V351.603H357.852V349.603ZM298.329 138.568V136.568H296.329V138.568H298.329ZM568.886 138.568H570.886V136.568H568.886V138.568ZM568.886 409.125V411.125H570.886V409.125H568.886ZM298.329 409.125H296.329V411.125H298.329V409.125ZM238.806 198.091V196.091H236.806V198.091H238.806ZM509.364 198.091H511.364V196.091H509.364V198.091ZM509.364 468.648V470.648H511.364V468.648H509.364ZM238.806 468.648H236.806V470.648H238.806V468.648ZM179.284 257.613V255.613H177.284V257.613H179.284ZM449.841 257.613H451.841V255.613H449.841V257.613ZM449.841 528.171V530.171H451.841V528.171H449.841ZM179.284 528.171H177.284V530.171H179.284V528.171ZM119.761 317.136V315.136H117.761V317.136H119.761ZM390.318 317.136H392.318V315.136H390.318V317.136ZM390.318 587.693V589.693H392.318V587.693H390.318ZM119.761 587.693H117.761V589.693H119.761V587.693ZM0.71582 436.181V434.181H-1.28418V436.181H0.71582ZM271.273 436.181H273.273V434.181H271.273V436.181ZM271.273 706.738V708.738H273.273V706.738H271.273ZM0.71582 706.738H-1.28418V708.738H0.71582V706.738ZM60.2385 376.658V374.658H58.2385V376.658H60.2385ZM330.796 376.658H332.796V374.658H330.796V376.658ZM330.796 647.216V649.216H332.796V647.216H330.796ZM60.2385 647.216H58.2385V649.216H60.2385V647.216ZM417.374 19.5226V17.5226H415.374V19.5226H417.374ZM687.932 19.5226H689.932V17.5226H687.932V19.5226ZM687.932 290.08V292.08H689.932V290.08H687.932ZM417.374 290.08H415.374V292.08H417.374V290.08ZM476.897 -40V-42H474.897V-40H476.897ZM747.454 -40H749.454V-42H747.454V-40ZM747.454 230.557V232.557H749.454V230.557H747.454ZM476.897 230.557H474.897V232.557H476.897V230.557ZM357.852 81.0453H628.409V77.0453H357.852V81.0453ZM626.409 79.0453V349.603H630.409V79.0453H626.409ZM628.409 347.603H357.852V351.603H628.409V347.603ZM359.852 349.603V79.0453H355.852V349.603H359.852ZM298.329 140.568H568.886V136.568H298.329V140.568ZM566.886 138.568V409.125H570.886V138.568H566.886ZM568.886 407.125H298.329V411.125H568.886V407.125ZM300.329 409.125V138.568H296.329V409.125H300.329ZM238.806 200.091H509.364V196.091H238.806V200.091ZM507.364 198.091V468.648H511.364V198.091H507.364ZM509.364 466.648H238.806V470.648H509.364V466.648ZM240.806 468.648V198.091H236.806V468.648H240.806ZM179.284 259.613H449.841V255.613H179.284V259.613ZM447.841 257.613V528.171H451.841V257.613H447.841ZM449.841 526.171H179.284V530.171H449.841V526.171ZM181.284 528.171V257.613H177.284V528.171H181.284ZM119.761 319.136H390.318V315.136H119.761V319.136ZM388.318 317.136V587.693H392.318V317.136H388.318ZM390.318 585.693H119.761V589.693H390.318V585.693ZM121.761 587.693V317.136H117.761V587.693H121.761ZM0.71582 438.181H271.273V434.181H0.71582V438.181ZM269.273 436.181V706.738H273.273V436.181H269.273ZM271.273 704.738H0.71582V708.738H271.273V704.738ZM2.71582 706.738V436.181H-1.28418V706.738H2.71582ZM60.2385 378.658H330.796V374.658H60.2385V378.658ZM328.796 376.658V647.216H332.796V376.658H328.796ZM330.796 645.216H60.2385V649.216H330.796V645.216ZM62.2385 647.216V376.658H58.2385V647.216H62.2385ZM417.374 21.5226H687.932V17.5226H417.374V21.5226ZM685.932 19.5226V290.08H689.932V19.5226H685.932ZM687.932 288.08H417.374V292.08H687.932V288.08ZM419.374 290.08V19.5226H415.374V290.08H419.374ZM476.897 -38H747.454V-42H476.897V-38ZM745.454 -40V230.557H749.454V-40H745.454ZM747.454 228.557H476.897V232.557H747.454V228.557ZM478.897 230.557V-40H474.897V230.557H478.897Z" fill="#6EE8CC" mask="url(#path-1-inside-1_6_518)"/>
</svg>
