<?xml version="1.0" standalone="no"?>
<!DOCTYPE svg PUBLIC "-//W3C//DTD SVG 20010904//EN"
 "http://www.w3.org/TR/2001/REC-SVG-20010904/DTD/svg10.dtd">
<svg version="1.0" xmlns="http://www.w3.org/2000/svg"
 width="700.000000pt" height="700.000000pt" viewBox="0 0 700.000000 700.000000"
 preserveAspectRatio="xMidYMid meet">
<metadata>
Created by potrace 1.14, written by Peter Selinger 2001-2017
</metadata>
<g transform="translate(0.000000,700.000000) scale(0.100000,-0.100000)"
fill="#000000" stroke="none">
<path d="M70 3500 l0 -3430 3430 0 3430 0 0 3430 0 3430 -3430 0 -3430 0 0
-3430z m6540 0 l0 -3110 -3110 0 -3110 0 0 3110 0 3110 3110 0 3110 0 0 -3110z"/>
<path d="M1720 4480 l0 -710 160 0 160 0 0 710 0 710 -160 0 -160 0 0 -710z"/>
<path d="M4930 4480 l0 -710 160 0 160 0 0 710 0 710 -160 0 -160 0 0 -710z"/>
<path d="M2320 2540 l0 -140 429 -2 430 -3 -394 -455 c-217 -250 -395 -457
-395 -460 0 -10 192 -173 205 -174 7 0 210 226 450 504 241 278 441 505 446
505 5 0 205 -227 445 -505 240 -278 441 -506 445 -508 9 -4 209 166 209 177 0
4 -177 211 -393 461 l-394 455 429 3 428 2 0 140 0 140 -1170 0 -1170 0 0
-140z"/>
</g>
</svg>
