<svg width="1728" height="276" viewBox="0 0 1728 276" fill="none" xmlns="http://www.w3.org/2000/svg">
<path fill-rule="evenodd" clip-rule="evenodd" d="M1728 276L1692 236.076C1656 196.152 1584 115.376 1512 99.5922C1440 83.8084 1368 132.088 1296 172.012C1224 211.936 1152 243.504 1080 227.72C1008 211.936 936 147.872 864 91.2361C792 35.5284 720 -12.7517 648 3.03218C576 19.7445 504 99.5922 432 123.732C360 147.872 288 115.376 216 132.088C144 147.872 72 211.936 36 243.504L0 276V276H36C72 276 144 276 216 276C288 276 360 276 432 276C504 276 576 276 648 276C720 276 792 276 864 276C936 276 1008 276 1080 276C1152 276 1224 276 1296 276C1368 276 1440 276 1512 276C1584 276 1656 276 1692 276H1728Z" fill="#4BA9FF" fill-opacity="0.55"/>
</svg>
